<?xml version="1.0" encoding="utf-8"?>
<!-- Generator: Adobe Illustrator 25.4.2, SVG Export Plug-In . SVG Version: 6.00 Build 0)  -->
<svg version="1.1" id="Lager_1" xmlns="http://www.w3.org/2000/svg" xmlns:xlink="http://www.w3.org/1999/xlink" x="0px" y="0px"
	 viewBox="0 0 218.5 92" style="enable-background:new 0 0 218.5 92;" xml:space="preserve">
<style type="text/css">
	.st0{display:none;}
</style>
<g id="Färgrutor" class="st0">
</g>
<g id="Lager_2_00000128451864928006900260000004433742680516551598_" class="st0">
</g>
<g id="Lager_3" class="st0">
</g>
<g id="Lager_4_kopia" class="st0">
</g>
<g id="Lager_5">
	<g>
		<g>
			<path d="M39.4,43.8c6.2,0,11.3,5.1,11.3,11.3s-5.1,11.3-11.3,11.3s-11.3-5.1-11.3-11.3S33.1,43.8,39.4,43.8 M39.4,31
				C26,31,15.2,41.8,15.2,55.1S26,79.2,39.4,79.2s24.1-10.8,24.1-24.1S52.7,31,39.4,31L39.4,31z"/>
		</g>
		<g>
			<path d="M119.6,45.3c6.2,0,11.3,5.1,11.3,11.3h12.8c0-13.3-10.8-24.1-24.1-24.1l0,0c-13.3,0-24.1,10.8-24.1,24.1h12.8
				C108.3,50.4,113.4,45.3,119.6,45.3"/>
		</g>
		<g>
			<rect x="51" y="32.5" width="12.8" height="46.7"/>
		</g>
		<g>
			<rect x="72.9" y="14.4" width="12.8" height="64.8"/>
		</g>
		<g>
			<rect x="95.5" y="32.5" width="12.8" height="46.7"/>
		</g>
		<g>
			<rect x="189" y="32.5" width="12.8" height="46.7"/>
		</g>
		<g>
			<rect x="130.9" y="54.6" width="12.8" height="24.6"/>
		</g>
		<g>
			<path d="M195.3,28.6c-4.4,0-7.9-3.5-7.9-7.9s3.5-7.9,7.9-7.9s7.9,3.5,7.9,7.9S199.7,28.6,195.3,28.6z"/>
		</g>
		<g>
			<g>
				<g>
					<g>
						<rect x="72.9" y="14.4" width="12.8" height="64.8"/>
					</g>
				</g>
			</g>
		</g>
		<g>
			<g>
				<g>
					<g>
						<rect x="166.4" y="54.6" width="12.8" height="24.6"/>
					</g>
				</g>
			</g>
		</g>
		<g>
			<g>
				<g>
					<g>
						<path d="M155.1,45.3c6.2,0,11.3,5.1,11.3,11.3h12.8c0-13.3-10.8-24.1-24.1-24.1l0,0c-13.3,0-24.1,10.8-24.1,24.1h12.8
							C143.7,50.4,148.8,45.3,155.1,45.3"/>
					</g>
				</g>
			</g>
		</g>
	</g>
</g>
</svg>
