<?xml version="1.0" encoding="utf-8"?>
<!-- Generator: Adobe Illustrator 25.4.2, SVG Export Plug-In . SVG Version: 6.00 Build 0)  -->
<svg version="1.0" id="Lager_1" xmlns="http://www.w3.org/2000/svg" xmlns:xlink="http://www.w3.org/1999/xlink" x="0px" y="0px"
	 viewBox="0 0 408 204" style="enable-background:new 0 0 408 204;" xml:space="preserve">
<style type="text/css">
	.st0{fill:#FA1996;stroke:#FA1996;stroke-width:80;stroke-miterlimit:10;}
	.st1{fill:#FA1996;stroke:#FFAFE1;stroke-width:80;stroke-miterlimit:10;}
	.st2{fill:#00F0AF;}
	.st3{fill:#FFCD32;}
	.st4{fill:none;stroke:#FFAFE1;stroke-width:85;stroke-miterlimit:10;}
	.st5{fill:none;stroke:#FFCD32;stroke-width:85;stroke-miterlimit:10;}
	.st6{fill:#FA1996;}
	.st7{fill:none;stroke:#FA1996;stroke-width:80;stroke-miterlimit:10;}
	.st8{fill:#FFFFFF;stroke:#FFFFFF;stroke-miterlimit:10;}
	.st9{fill:#FFCD32;stroke:#FFCD32;stroke-miterlimit:10;}
	.st10{fill:#FFAFE1;}
	.st11{fill:#FA1996;stroke:#FA1996;stroke-width:40;stroke-miterlimit:10;}
	.st12{fill:#FFFFFF;}
	.st13{fill:none;stroke:#FFAFE1;stroke-width:80;stroke-miterlimit:10;}
	.st14{fill:none;stroke:#FFCD32;stroke-width:80;stroke-miterlimit:10;}
</style>
<path class="st0" d="M-3090,932c0,120.02-0.5,146.53-0.5,266.55"/>
<path class="st1" d="M-2952.97,1058.39c-120.02,0.12-146.53-0.36-266.55-0.24"/>
<path class="st0" d="M-3086,1004"/>
<path d="M-2747,1175c118-324,236-324,354,0"/>
<g>
	<path class="st2" d="M-1785,1253.5h-80c0-31.92-14.2-64.88-38.96-90.44c-25.65-26.48-58.52-41.06-92.54-41.06
		c-72.51,0-131.5,58.99-131.5,131.5h-80c0-116.62,94.88-211.5,211.5-211.5c28.66,0,56.68,6.11,83.27,18.17
		c24.82,11.25,47.27,27.14,66.72,47.23C-1807.42,1147.74-1785,1201-1785,1253.5z"/>
	<g>
		<path class="st3" d="M629,1384h-80c0-68.37-55.63-124-124-124s-124,55.63-124,124h-80c0-112.49,91.51-204,204-204
			S629,1271.51,629,1384z"/>
	</g>
	<path class="st4" d="M426.81,1626.18"/>
	<path class="st4" d="M98.81,1626.18"/>
	<path class="st5" d="M-371.19,1643.18c0-90.57,73.43-164,164-164s164,73.43,164,164"/>
</g>
<g>
	<path class="st2" d="M120,1387H40c0-31.92-14.2-64.88-38.96-90.44c-25.65-26.48-58.52-41.06-92.54-41.06
		c-72.51,0-131.5,58.99-131.5,131.5h-80c0-116.62,94.88-211.5,211.5-211.5c28.66,0,56.68,6.11,83.27,18.17
		c24.82,11.25,47.27,27.14,66.72,47.23C97.58,1281.24,120,1334.5,120,1387z"/>
</g>
<g>
	<rect x="-2830" y="1321" class="st6" width="20" height="277.91"/>
</g>
<path class="st7" d="M-2611,1404"/>
<rect x="-2611" y="1404" class="st7" width="109" height="34"/>
<path class="st7" d="M-2935,1502"/>
<g>
	<polygon class="st6" points="-2819.84,1624.86 -2924.57,1533.54 -2911.43,1518.46 -2820.16,1598.05 -2733.29,1518.62 
		-2719.8,1533.38 	"/>
</g>
<g>
	<polygon class="st6" points="-2165.84,1624.86 -2270.57,1533.54 -2257.43,1518.46 -2166.16,1598.05 -2079.29,1518.62 
		-2065.8,1533.38 	"/>
</g>
<g>
	<polygon class="st8" points="-1196.84,1651.86 -1301.57,1560.54 -1288.43,1545.46 -1197.16,1625.05 -1110.29,1545.62 
		-1096.8,1560.38 	"/>
</g>
<g>
	<path class="st2" d="M-3191.33-303.1c0,74.74-0.31,91.26-0.31,166"/>
	<path class="st9" d="M-3171.65-137.1h-40c0-37.41,0.08-60.62,0.16-83.07c0.08-22.42,0.16-45.59,0.16-82.93h40
		c0,37.41-0.08,60.62-0.16,83.07C-3171.57-197.62-3171.65-174.44-3171.65-137.1z"/>
</g>
<g>
	<path class="st6" d="M-3106-224.39c-74.74,0.07-91.26-0.22-166-0.15"/>
	<path class="st10" d="M-3129.09-204.37c-24.64,0-42.53-0.04-59.96-0.09c-22.42-0.05-45.59-0.11-82.93-0.07l-0.04-40
		c37.4-0.04,60.62,0.02,83.07,0.07c22.42,0.05,45.59,0.11,82.93,0.07l0.04,40C-3114.34-204.38-3122-204.37-3129.09-204.37z"/>
</g>
<path class="st11" d="M-3188.84-258.26"/>
<g>
	<g>
		<rect x="-2375.77" y="-44" class="st12" width="17.97" height="249.67"/>
		<path class="st12" d="M-2349.81,213.67h-33.97V-52h33.97V213.67z M-2367.77,197.67h1.97V-36h-1.97V197.67z"/>
	</g>
</g>
<path class="st7" d="M-1965.79-191.23"/>
<g>
	<g>
		<polygon class="st12" points="-2366.63,231.62 -2471.36,140.3 -2458.22,125.23 -2366.95,204.81 -2280.08,125.39 -2266.58,140.15 
					"/>
		<path class="st12" d="M-2366.5,242.35l-116.15-101.27l23.66-27.13l91.92,80.15l87.5-80.01l24.29,26.57L-2366.5,242.35z
			 M-2460.07,139.53l93.32,81.37l88.87-81.26l-2.7-2.95l-86.23,78.85l-90.62-79.02L-2460.07,139.53z"/>
	</g>
</g>
<g>
	<g>
		<rect x="-2089.61" y="37.33" class="st12" width="17.97" height="249.67"/>
		<path class="st12" d="M-2063.64,295.01h-33.97V29.33h33.97V295.01z M-2081.61,279.01h1.97V45.33h-1.97V279.01z"/>
	</g>
</g>
<g>
	<g>
		<polygon class="st12" points="-2080.47,312.96 -2185.2,221.64 -2172.05,206.56 -2080.78,286.15 -1993.92,206.72 -1980.42,221.48 
					"/>
		<path class="st12" d="M-2080.34,323.68l-116.15-101.27l23.66-27.13l91.92,80.15l87.5-80.01l24.29,26.57L-2080.34,323.68z
			 M-2173.91,220.86l93.32,81.37l88.87-81.26l-2.7-2.95l-86.23,78.85l-90.62-79.02L-2173.91,220.86z"/>
	</g>
</g>
<g>
	<line class="st6" x1="-1419" y1="-457" x2="-1419" y2="-11"/>
	<rect x="-1459" y="-457" class="st6" width="80" height="446"/>
</g>
<g>
	<line class="st6" x1="-1419" y1="-366" x2="-1419" y2="-211"/>
	<rect x="-1459" y="-366" class="st10" width="80" height="155"/>
</g>
<g>
	<line class="st6" x1="-1419" y1="-462" x2="-1419" y2="-366"/>
	<rect x="-1459" y="-461" class="st3" width="80" height="96"/>
</g>
<path class="st13" d="M98.81,1923.18c0-90.57,73.43-164,164-164s164,73.43,164,164"/>
<g>
	<path class="st10" d="M539.11,1335.48c-10.81-25.57-30.2-47.04-54.58-60.47l38.59-70.08c40.04,22.05,71.89,57.34,89.67,99.38
		L539.11,1335.48z"/>
</g>
<path class="st13" d="M354.84,1620.73"/>
<path class="st13" d="M482.8,1485.38c32.15,17.7,57.72,45.87,72.12,79.92"/>
<path class="st14" d="M1286.61,1791.2c90.57,0,164,73.43,164,164"/>
<path class="st14" d="M1122.61,1955.2c0-90.57,73.43-164,164-164"/>
<path class="st13" d="M1365.44,1811.17c32.15,17.7,57.72,45.87,72.12,79.92"/>
<g>
	<g>
		<g>
			<path class="st2" d="M-2872.18,72.42c0-74.74,0.31-91.26,0.31-166l19.5,0h-39"/>
		</g>
	</g>
	<g>
		<g>
			<path class="st3" d="M-2851.87-93.58c0,37.41-0.08,60.62-0.16,83.07c-0.08,22.42-0.16,45.59-0.16,82.93h-40
				c0-37.41,0.08-60.62,0.16-83.07c0.08-22.42,0.16-45.59,0.16-82.93"/>
		</g>
		<g>
			<path class="st3" d="M-2851.68,72.92h-41v-0.5c0-37.46,0.08-60.64,0.16-83.07l0-0.18c0.08-22.38,1.15-82.75,1.15-82.75
				c0,37.24-0.08,60.38-0.15,82.76l0,0.18c-0.08,22.32-0.16,45.41-0.16,82.57h39c0-36.95,0.08-59.98,0.15-82.26l0-0.18
				c0.08-22.42,0.16-45.61,0.16-83.07h1c0,37.46-0.08,60.64-0.16,83.07l0,0.18c-0.08,22.38-0.15,45.51-0.15,82.75V72.92z"/>
		</g>
	</g>
	<g>
		<g>
			<g>
				<path class="st6" d="M-2786.54-14.87c-74.74,0.07-91.26-0.22-166-0.15"/>
			</g>
		</g>
		<g>
			<g>
				<path class="st10" d="M-2809.63,5.14c-24.64,0-42.53-0.04-59.96-0.09c-22.42-0.05-45.59-0.11-82.93-0.07l-0.04-40
					c37.4-0.04,60.62,0.02,83.07,0.07c22.42,0.05,45.59,0.11,82.93,0.07l0.04,40C-2794.88,5.14-2802.53,5.14-2809.63,5.14z"/>
			</g>
		</g>
	</g>
</g>
<g>
	<g>
		<path class="st11" d="M-2869.38-48.74"/>
	</g>
</g>
<g>
	<g>
		<path class="st3" d="M408,204h-80c0-68.37-55.63-124-124-124V0C316.49,0,408,91.51,408,204z"/>
	</g>
	<g>
		<path class="st3" d="M80,204H0C0,91.51,91.51,0,204,0v80C135.63,80,80,135.63,80,204z"/>
	</g>
	<g>
		<path class="st10" d="M318.11,155.48c-10.81-25.57-30.2-47.04-54.58-60.47l38.59-70.08c40.04,22.05,71.89,57.34,89.67,99.38
			L318.11,155.48z"/>
	</g>
</g>
<g>
	<g>
		<path class="st3" d="M834,306h-80c0-68.37-55.63-124-124-124v-80C742.49,102,834,193.51,834,306z"/>
	</g>
	<g>
		<path class="st3" d="M506,306h-80c0-112.49,91.51-204,204-204v80C561.63,182,506,237.63,506,306z"/>
	</g>
	<g>
		<path class="st10" d="M744.11,257.48c-10.81-25.57-30.2-47.04-54.58-60.47l38.59-70.08c40.04,22.05,71.89,57.34,89.67,99.38
			L744.11,257.48z"/>
	</g>
</g>
<g>
	<g>
		<path class="st3" d="M-134.31,276.28l73.71,31.1c-26.58,63,3.05,135.87,66.05,162.45l-31.1,73.71
			C-129.29,499.81-178.03,379.92-134.31,276.28z"/>
	</g>
	<g>
		<path class="st3" d="M167.9,403.78l73.71,31.1C197.88,538.52,77.99,587.26-25.65,543.54l31.1-73.71
			C68.45,496.41,141.32,466.78,167.9,403.78z"/>
	</g>
	<g>
		<path class="st10" d="M-70.35,355.93c0.03,27.76,9.54,55.08,26.78,76.93l-62.79,49.57c-28.32-35.88-43.95-80.78-43.99-126.42
			L-70.35,355.93z"/>
	</g>
</g>
</svg>
