<?xml version="1.0" encoding="utf-8"?>
<!-- Generator: Adobe Illustrator 25.4.2, SVG Export Plug-In . SVG Version: 6.00 Build 0)  -->
<svg version="1.0" id="Lager_1" xmlns="http://www.w3.org/2000/svg" xmlns:xlink="http://www.w3.org/1999/xlink" x="0px" y="0px"
	 viewBox="0 0 392 284" style="enable-background:new 0 0 392 284;" xml:space="preserve">
<style type="text/css">
	.st0{fill:#FA1996;stroke:#FA1996;stroke-width:80;stroke-miterlimit:10;}
	.st1{fill:#FA1996;stroke:#FFAFE1;stroke-width:80;stroke-miterlimit:10;}
	.st2{fill:#00F0AF;}
	.st3{fill:#FFCD32;}
	.st4{fill:none;stroke:#FFAFE1;stroke-width:85;stroke-miterlimit:10;}
	.st5{fill:none;stroke:#FFCD32;stroke-width:85;stroke-miterlimit:10;}
	.st6{fill:#FA1996;}
	.st7{fill:none;stroke:#FA1996;stroke-width:80;stroke-miterlimit:10;}
	.st8{fill:#FFFFFF;stroke:#FFFFFF;stroke-miterlimit:10;}
	.st9{fill:#FFCD32;stroke:#FFCD32;stroke-miterlimit:10;}
	.st10{fill:#FFAFE1;}
	.st11{fill:#FA1996;stroke:#FA1996;stroke-width:40;stroke-miterlimit:10;}
	.st12{fill:#FFFFFF;}
	.st13{fill:none;stroke:#FFAFE1;stroke-width:80;stroke-miterlimit:10;}
	.st14{fill:none;stroke:#FFCD32;stroke-width:80;stroke-miterlimit:10;}
</style>
<path class="st0" d="M-1963,612c0,120.02-0.5,146.53-0.5,266.55"/>
<path class="st1" d="M-1825.97,738.39c-120.02,0.12-146.53-0.36-266.55-0.24"/>
<path class="st0" d="M-1959,684"/>
<path d="M-1620,855c118-324,236-324,354,0"/>
<g>
	<path class="st2" d="M-658,933.5h-80c0-31.92-14.2-64.88-38.96-90.44C-802.61,816.58-835.48,802-869.5,802
		c-72.51,0-131.5,58.99-131.5,131.5h-80c0-116.62,94.88-211.5,211.5-211.5c28.66,0,56.68,6.11,83.27,18.17
		c24.82,11.25,47.27,27.14,66.72,47.23C-680.42,827.74-658,881-658,933.5z"/>
	<g>
		<path class="st3" d="M1756,1064h-80c0-68.37-55.63-124-124-124s-124,55.63-124,124h-80c0-112.49,91.51-204,204-204
			S1756,951.51,1756,1064z"/>
	</g>
	<path class="st4" d="M1553.81,1306.18"/>
	<path class="st4" d="M1225.81,1306.18"/>
	<path class="st5" d="M755.81,1323.18c0-90.57,73.43-164,164-164s164,73.43,164,164"/>
</g>
<g>
	<path class="st2" d="M1247,1067h-80c0-31.92-14.2-64.88-38.96-90.44c-25.65-26.48-58.52-41.06-92.54-41.06
		c-72.51,0-131.5,58.99-131.5,131.5h-80c0-116.62,94.88-211.5,211.5-211.5c28.66,0,56.68,6.11,83.27,18.17
		c24.82,11.25,47.27,27.14,66.72,47.23C1224.58,961.24,1247,1014.5,1247,1067z"/>
</g>
<g>
	<rect x="-1703" y="1001" class="st6" width="20" height="277.91"/>
</g>
<path class="st7" d="M-1484,1084"/>
<rect x="-1484" y="1084" class="st7" width="109" height="34"/>
<path class="st7" d="M-1808,1182"/>
<g>
	<polygon class="st6" points="-1692.84,1304.86 -1797.57,1213.54 -1784.43,1198.46 -1693.16,1278.05 -1606.29,1198.62 
		-1592.8,1213.38 	"/>
</g>
<g>
	<polygon class="st6" points="-1038.84,1304.86 -1143.57,1213.54 -1130.43,1198.46 -1039.16,1278.05 -952.29,1198.62 
		-938.8,1213.38 	"/>
</g>
<g>
	<polygon class="st8" points="-69.84,1331.86 -174.57,1240.54 -161.43,1225.46 -70.16,1305.05 16.71,1225.62 30.2,1240.38 	"/>
</g>
<g>
	<path class="st2" d="M-2064.33-623.1c0,74.74-0.31,91.26-0.31,166"/>
	<path class="st9" d="M-2044.65-457.1h-40c0-37.41,0.08-60.62,0.16-83.07c0.08-22.42,0.16-45.59,0.16-82.93h40
		c0,37.41-0.08,60.62-0.16,83.07C-2044.57-517.62-2044.65-494.44-2044.65-457.1z"/>
</g>
<g>
	<path class="st6" d="M-1979-544.39c-74.74,0.07-91.26-0.22-166-0.15"/>
	<path class="st10" d="M-2002.09-524.37c-24.64,0-42.53-0.04-59.96-0.09c-22.42-0.05-45.59-0.11-82.93-0.07l-0.04-40
		c37.4-0.04,60.62,0.02,83.07,0.07c22.42,0.05,45.59,0.11,82.93,0.07l0.04,40C-1987.34-524.38-1995-524.37-2002.09-524.37z"/>
</g>
<path class="st11" d="M-2061.84-578.26"/>
<g>
	<g>
		<rect x="-1248.77" y="-364" class="st12" width="17.97" height="249.67"/>
		<path class="st12" d="M-1222.81-106.33h-33.97V-372h33.97V-106.33z M-1240.77-122.33h1.97V-356h-1.97V-122.33z"/>
	</g>
</g>
<path class="st7" d="M-838.79-511.23"/>
<g>
	<g>
		<polygon class="st12" points="-1239.63,-88.38 -1344.36,-179.7 -1331.22,-194.77 -1239.95,-115.19 -1153.08,-194.61 
			-1139.58,-179.85 		"/>
		<path class="st12" d="M-1239.5-77.65l-116.15-101.27l23.66-27.13l91.92,80.15l87.5-80.01l24.29,26.57L-1239.5-77.65z
			 M-1333.07-180.47l93.32,81.37l88.87-81.26l-2.7-2.95l-86.23,78.85l-90.62-79.02L-1333.07-180.47z"/>
	</g>
</g>
<g>
	<g>
		<rect x="-962.61" y="-282.67" class="st12" width="17.97" height="249.67"/>
		<path class="st12" d="M-936.64-24.99h-33.97v-265.67h33.97V-24.99z M-954.61-40.99h1.97v-233.67h-1.97V-40.99z"/>
	</g>
</g>
<g>
	<g>
		<polygon class="st12" points="-953.47,-7.04 -1058.2,-98.36 -1045.05,-113.44 -953.78,-33.85 -866.92,-113.28 -853.42,-98.52 		
			"/>
		<path class="st12" d="M-953.34,3.68l-116.15-101.27l23.66-27.13l91.92,80.15l87.5-80.01l24.29,26.57L-953.34,3.68z
			 M-1046.91-99.14l93.32,81.37l88.87-81.26l-2.7-2.95l-86.23,78.85l-90.62-79.02L-1046.91-99.14z"/>
	</g>
</g>
<g>
	<line class="st6" x1="-292" y1="-777" x2="-292" y2="-331"/>
	<rect x="-332" y="-777" class="st6" width="80" height="446"/>
</g>
<g>
	<line class="st6" x1="-292" y1="-686" x2="-292" y2="-531"/>
	<rect x="-332" y="-686" class="st10" width="80" height="155"/>
</g>
<g>
	<line class="st6" x1="-292" y1="-782" x2="-292" y2="-686"/>
	<rect x="-332" y="-781" class="st3" width="80" height="96"/>
</g>
<path class="st13" d="M1225.81,1603.18c0-90.57,73.43-164,164-164s164,73.43,164,164"/>
<g>
	<path class="st10" d="M1666.11,1015.48c-10.81-25.57-30.2-47.04-54.58-60.47l38.59-70.08c40.04,22.05,71.89,57.34,89.67,99.38
		L1666.11,1015.48z"/>
</g>
<path class="st13" d="M1481.84,1300.73"/>
<path class="st13" d="M1609.8,1165.38c32.15,17.7,57.72,45.87,72.12,79.92"/>
<path class="st14" d="M2413.61,1471.2c90.57,0,164,73.43,164,164"/>
<path class="st14" d="M2249.61,1635.2c0-90.57,73.43-164,164-164"/>
<path class="st13" d="M2492.44,1491.17c32.15,17.7,57.72,45.87,72.12,79.92"/>
<g>
	<g>
		<g>
			<path class="st2" d="M-1745.18-247.58c0-74.74,0.31-91.26,0.31-166l19.5,0h-39"/>
		</g>
	</g>
	<g>
		<g>
			<path class="st3" d="M-1724.87-413.58c0,37.41-0.08,60.62-0.16,83.07c-0.08,22.42-0.16,45.59-0.16,82.93h-40
				c0-37.41,0.08-60.62,0.16-83.07c0.08-22.42,0.16-45.59,0.16-82.93"/>
		</g>
		<g>
			<path class="st3" d="M-1724.68-247.08h-41v-0.5c0-37.46,0.08-60.64,0.16-83.07l0-0.18c0.08-22.38,1.15-82.75,1.15-82.75
				c0,37.24-0.08,60.38-0.15,82.76l0,0.18c-0.08,22.32-0.16,45.41-0.16,82.57h39c0-36.95,0.08-59.98,0.15-82.26l0-0.18
				c0.08-22.42,0.16-45.61,0.16-83.07h1c0,37.46-0.08,60.64-0.16,83.07l0,0.18c-0.08,22.38-0.15,45.51-0.15,82.75V-247.08z"/>
		</g>
	</g>
	<g>
		<g>
			<g>
				<path class="st6" d="M-1659.54-334.87c-74.74,0.07-91.26-0.22-166-0.15"/>
			</g>
		</g>
		<g>
			<g>
				<path class="st10" d="M-1682.63-314.86c-24.64,0-42.53-0.04-59.96-0.09c-22.42-0.05-45.59-0.11-82.93-0.07l-0.04-40
					c37.4-0.04,60.62,0.02,83.07,0.07c22.42,0.05,45.59,0.11,82.93,0.07l0.04,40C-1667.88-314.86-1675.53-314.86-1682.63-314.86z"/>
			</g>
		</g>
	</g>
</g>
<g>
	<g>
		<path class="st11" d="M-1742.38-368.74"/>
	</g>
</g>
<g>
	<g>
		<path class="st3" d="M1535-116h-80c0-68.37-55.63-124-124-124v-80C1443.49-320,1535-228.49,1535-116z"/>
	</g>
	<g>
		<path class="st3" d="M1207-116h-80c0-112.49,91.51-204,204-204v80C1262.63-240,1207-184.37,1207-116z"/>
	</g>
	<g>
		<path class="st10" d="M1445.11-164.52c-10.81-25.57-30.2-47.04-54.58-60.47l38.59-70.08c40.04,22.05,71.89,57.34,89.67,99.38
			L1445.11-164.52z"/>
	</g>
</g>
<g>
	<g>
		<path class="st3" d="M1961-14h-80c0-68.37-55.63-124-124-124v-80C1869.49-218,1961-126.49,1961-14z"/>
	</g>
	<g>
		<path class="st3" d="M1633-14h-80c0-112.49,91.51-204,204-204v80C1688.63-138,1633-82.37,1633-14z"/>
	</g>
	<g>
		<path class="st10" d="M1871.11-62.52c-10.81-25.57-30.2-47.04-54.58-60.47l38.59-70.08c40.04,22.05,71.89,57.34,89.67,99.38
			L1871.11-62.52z"/>
	</g>
</g>
<g>
	<g>
		<path class="st3" d="M15.69,0.28l73.71,31.1c-26.58,63,3.05,135.87,66.05,162.45l-31.1,73.71
			C20.71,223.81-28.03,103.92,15.69,0.28z"/>
	</g>
	<g>
		<path class="st3" d="M317.9,127.78l73.71,31.1c-43.73,103.64-163.61,152.38-267.26,108.66l31.1-73.71
			C218.45,220.41,291.32,190.78,317.9,127.78z"/>
	</g>
	<g>
		<path class="st10" d="M79.65,79.93c0.03,27.76,9.54,55.08,26.78,76.93l-62.79,49.57C15.31,170.54-0.31,125.64-0.35,80L79.65,79.93
			z"/>
	</g>
</g>
<polyline class="st3" points="912,-206 912,-206 912,-206.4 "/>
</svg>
