<?xml version="1.0" encoding="utf-8"?>
<!-- Generator: Adobe Illustrator 25.4.2, SVG Export Plug-In . SVG Version: 6.00 Build 0)  -->
<svg version="1.0" id="Lager_1" xmlns="http://www.w3.org/2000/svg" xmlns:xlink="http://www.w3.org/1999/xlink" x="0px" y="0px"
	 viewBox="0 0 166 166" style="enable-background:new 0 0 166 166;" xml:space="preserve">
<style type="text/css">
	.st0{fill:#00F0AF;}
	.st1{fill:#FFCD32;}
	.st2{fill:#FA1996;}
	.st3{fill:#FFAFE1;}
	.st4{fill:#FA1996;stroke:#FA1996;stroke-width:40;stroke-miterlimit:10;}
</style>
<g>
	<g>
		<g>
			<path class="st0" d="M80.66,0c0,74.74-0.31,91.26-0.31,166"/>
		</g>
	</g>
	<g>
		<g>
			<path class="st1" d="M100.35,166h-40c0-37.41,0.08-60.62,0.16-83.07C60.59,60.52,60.66,37.34,60.66,0h40
				c0,37.41-0.08,60.62-0.16,83.07C100.43,105.48,100.35,128.66,100.35,166z"/>
		</g>
		<g>
			<path class="st1" d="M100.85,166.5h-41V166c0-37.46,0.08-60.64,0.16-83.07l0-0.18C60.09,60.38,60.16,37.24,60.16,0v-0.5h41V0
				c0,37.46-0.08,60.64-0.16,83.07l0,0.18c-0.08,22.38-0.15,45.51-0.15,82.75V166.5z M60.85,165.5h39c0-36.95,0.08-59.98,0.15-82.26
				l0-0.18c0.08-22.32,0.16-45.41,0.16-82.57h-39c0,36.95-0.08,59.98-0.15,82.26l0,0.18C60.93,105.26,60.85,128.34,60.85,165.5z"/>
		</g>
	</g>
	<g>
		<g>
			<path class="st2" d="M166,78.71c-74.74,0.07-91.26-0.22-166-0.15"/>
		</g>
	</g>
	<g>
		<g>
			<path class="st3" d="M142.91,98.73c-24.64,0-42.53-0.04-59.96-0.09c-22.42-0.05-45.59-0.11-82.93-0.07l-0.04-40
				c37.4-0.04,60.62,0.02,83.07,0.07c22.42,0.05,45.59,0.11,82.93,0.07l0.04,40C157.66,98.72,150,98.73,142.91,98.73z"/>
		</g>
	</g>
	<g>
		<path class="st4" d="M83.16,44.84"/>
	</g>
	<g>
		<g>
			<path class="st0" d="M80.66,0c0,74.74-0.31,91.26-0.31,166"/>
		</g>
	</g>
	<g>
		<g>
			<path class="st1" d="M100.35,166h-40c0-37.41,0.08-60.62,0.16-83.07C60.59,60.52,60.66,37.34,60.66,0h40
				c0,37.41-0.08,60.62-0.16,83.07C100.43,105.48,100.35,128.66,100.35,166z"/>
		</g>
		<g>
			<path class="st1" d="M100.85,166.5h-41V166c0-37.46,0.08-60.64,0.16-83.07l0-0.18C60.09,60.38,60.16,37.24,60.16,0v-0.5h41V0
				c0,37.46-0.08,60.64-0.16,83.07l0,0.18c-0.08,22.38-0.15,45.51-0.15,82.75V166.5z M60.85,165.5h39c0-36.95,0.08-59.98,0.15-82.26
				l0-0.18c0.08-22.32,0.16-45.41,0.16-82.57h-39c0,36.95-0.08,59.98-0.15,82.26l0,0.18C60.93,105.26,60.85,128.34,60.85,165.5z"/>
		</g>
	</g>
	<g>
		<g>
			<path class="st2" d="M166,78.71c-74.74,0.07-91.26-0.22-166-0.15"/>
		</g>
	</g>
	<g>
		<g>
			<path class="st3" d="M142.91,98.73c-24.64,0-42.53-0.04-59.96-0.09c-22.42-0.05-45.59-0.11-82.93-0.07l-0.04-40
				c37.4-0.04,60.62,0.02,83.07,0.07c22.42,0.05,45.59,0.11,82.93,0.07l0.04,40C157.66,98.72,150,98.73,142.91,98.73z"/>
		</g>
	</g>
	<g>
		<path class="st4" d="M83.16,44.84"/>
	</g>
</g>
</svg>
