<?xml version="1.0" encoding="utf-8"?>
<!-- Svg Vector Icons : http://www.onlinewebfonts.com/icon -->
<!DOCTYPE svg PUBLIC "-//W3C//DTD SVG 1.1//EN" "http://www.w3.org/Graphics/SVG/1.1/DTD/svg11.dtd">
<svg version="1.1" xmlns="http://www.w3.org/2000/svg" xmlns:xlink="http://www.w3.org/1999/xlink" x="0px" y="0px" viewBox="0 0 1000 1000" enable-background="new 0 0 1000 1000" xml:space="preserve">
<metadata> Svg Vector Icons : http://www.onlinewebfonts.com/icon </metadata>
<g><g><g><path d="M410.7,607.4c73.5-38.1,146.4-75.9,220-114.1c-73.8-38.5-146.6-76.5-220-114.8C410.7,455.1,410.7,530.9,410.7,607.4z"/><path d="M500,10C229.4,10,10,229.4,10,500s219.4,490,490,490s490-219.4,490-490S770.6,10,500,10z M833.9,663.6c-8.5,36.8-38.6,63.9-74.8,68c-85.8,9.6-172.6,9.7-259.1,9.6c-86.5,0.1-173.3,0-259.1-9.6c-36.2-4-66.3-31.2-74.8-68C154,611.1,154,553.9,154,500s0.1-111.2,12.2-163.6c8.5-36.8,38.5-63.9,74.8-68c85.8-9.6,172.7-9.6,259.1-9.6c86.4-0.1,173.3,0,259.1,9.6c36.2,4.1,66.3,31.2,74.8,68c12.1,52.4,12,109.6,12,163.6S845.9,611.2,833.9,663.6z"/></g></g><g></g><g></g><g></g><g></g><g></g><g></g><g></g><g></g><g></g><g></g><g></g><g></g><g></g><g></g><g></g></g>
</svg>